<mxfile host="Electron" agent="Mozilla/5.0 (Windows NT 10.0; Win64; x64) AppleWebKit/537.36 (KHTML, like Gecko) draw.io/27.0.2 Chrome/134.0.6998.205 Electron/35.3.0 Safari/537.36" version="27.0.2">
  <diagram name="ページ1" id="pxdCRDH88It5vqQ6T75E">
    <mxGraphModel dx="1240" dy="773" grid="1" gridSize="10" guides="1" tooltips="1" connect="1" arrows="1" fold="1" page="1" pageScale="1" pageWidth="827" pageHeight="1169" math="0" shadow="0">
      <root>
        <mxCell id="0" />
        <mxCell id="1" parent="0" />
        <mxCell id="bnYyNJB6cAQLW_tnR6n0-47" value="" style="rounded=1;whiteSpace=wrap;html=1;fillColor=none;dashed=1;strokeWidth=2;strokeColor=#909090;" vertex="1" parent="1">
          <mxGeometry x="59" y="200" width="510" height="130" as="geometry" />
        </mxCell>
        <mxCell id="bnYyNJB6cAQLW_tnR6n0-44" value="" style="rounded=1;whiteSpace=wrap;html=1;fillColor=none;dashed=1;strokeWidth=2;strokeColor=#909090;" vertex="1" parent="1">
          <mxGeometry x="59" y="60" width="510" height="130" as="geometry" />
        </mxCell>
        <mxCell id="bnYyNJB6cAQLW_tnR6n0-1" value="" style="rounded=0;whiteSpace=wrap;html=1;fillColor=none;dashed=1;" vertex="1" parent="1">
          <mxGeometry x="119" y="85" width="120" height="80" as="geometry" />
        </mxCell>
        <mxCell id="bnYyNJB6cAQLW_tnR6n0-2" value="" style="rounded=0;whiteSpace=wrap;html=1;fillColor=none;dashed=1;" vertex="1" parent="1">
          <mxGeometry x="279" y="85" width="120" height="80" as="geometry" />
        </mxCell>
        <mxCell id="bnYyNJB6cAQLW_tnR6n0-3" value="" style="rounded=0;whiteSpace=wrap;html=1;fillColor=none;dashed=1;" vertex="1" parent="1">
          <mxGeometry x="119" y="225" width="120" height="80" as="geometry" />
        </mxCell>
        <mxCell id="bnYyNJB6cAQLW_tnR6n0-4" value="" style="rounded=0;whiteSpace=wrap;html=1;fillColor=none;dashed=1;" vertex="1" parent="1">
          <mxGeometry x="279" y="225" width="120" height="80" as="geometry" />
        </mxCell>
        <mxCell id="bnYyNJB6cAQLW_tnR6n0-5" value="" style="rounded=0;whiteSpace=wrap;html=1;fillColor=none;dashed=1;" vertex="1" parent="1">
          <mxGeometry x="439" y="85" width="120" height="80" as="geometry" />
        </mxCell>
        <mxCell id="bnYyNJB6cAQLW_tnR6n0-6" value="" style="rounded=0;whiteSpace=wrap;html=1;fillColor=none;dashed=1;" vertex="1" parent="1">
          <mxGeometry x="439" y="225" width="120" height="80" as="geometry" />
        </mxCell>
        <mxCell id="bnYyNJB6cAQLW_tnR6n0-9" value="" style="group" vertex="1" connectable="0" parent="1">
          <mxGeometry x="249" y="115" width="20" height="20" as="geometry" />
        </mxCell>
        <mxCell id="bnYyNJB6cAQLW_tnR6n0-7" value="" style="endArrow=none;html=1;rounded=0;" edge="1" parent="bnYyNJB6cAQLW_tnR6n0-9">
          <mxGeometry width="50" height="50" relative="1" as="geometry">
            <mxPoint y="20" as="sourcePoint" />
            <mxPoint x="20" as="targetPoint" />
          </mxGeometry>
        </mxCell>
        <mxCell id="bnYyNJB6cAQLW_tnR6n0-8" value="" style="endArrow=none;html=1;rounded=0;" edge="1" parent="bnYyNJB6cAQLW_tnR6n0-9">
          <mxGeometry width="50" height="50" relative="1" as="geometry">
            <mxPoint as="sourcePoint" />
            <mxPoint x="20" y="20" as="targetPoint" />
          </mxGeometry>
        </mxCell>
        <mxCell id="bnYyNJB6cAQLW_tnR6n0-12" value="" style="group" vertex="1" connectable="0" parent="1">
          <mxGeometry x="409" y="120" width="20" height="10" as="geometry" />
        </mxCell>
        <mxCell id="bnYyNJB6cAQLW_tnR6n0-10" value="" style="endArrow=none;html=1;rounded=0;" edge="1" parent="bnYyNJB6cAQLW_tnR6n0-12">
          <mxGeometry width="50" height="50" relative="1" as="geometry">
            <mxPoint as="sourcePoint" />
            <mxPoint x="20" as="targetPoint" />
          </mxGeometry>
        </mxCell>
        <mxCell id="bnYyNJB6cAQLW_tnR6n0-11" value="" style="endArrow=none;html=1;rounded=0;" edge="1" parent="bnYyNJB6cAQLW_tnR6n0-12">
          <mxGeometry width="50" height="50" relative="1" as="geometry">
            <mxPoint y="10" as="sourcePoint" />
            <mxPoint x="20" y="10" as="targetPoint" />
          </mxGeometry>
        </mxCell>
        <mxCell id="bnYyNJB6cAQLW_tnR6n0-13" value="" style="group" vertex="1" connectable="0" parent="1">
          <mxGeometry x="409" y="260" width="20" height="10" as="geometry" />
        </mxCell>
        <mxCell id="bnYyNJB6cAQLW_tnR6n0-14" value="" style="endArrow=none;html=1;rounded=0;" edge="1" parent="bnYyNJB6cAQLW_tnR6n0-13">
          <mxGeometry width="50" height="50" relative="1" as="geometry">
            <mxPoint as="sourcePoint" />
            <mxPoint x="20" as="targetPoint" />
          </mxGeometry>
        </mxCell>
        <mxCell id="bnYyNJB6cAQLW_tnR6n0-15" value="" style="endArrow=none;html=1;rounded=0;" edge="1" parent="bnYyNJB6cAQLW_tnR6n0-13">
          <mxGeometry width="50" height="50" relative="1" as="geometry">
            <mxPoint y="10" as="sourcePoint" />
            <mxPoint x="20" y="10" as="targetPoint" />
          </mxGeometry>
        </mxCell>
        <mxCell id="bnYyNJB6cAQLW_tnR6n0-19" value="" style="group" vertex="1" connectable="0" parent="1">
          <mxGeometry x="249" y="255" width="20" height="20" as="geometry" />
        </mxCell>
        <mxCell id="bnYyNJB6cAQLW_tnR6n0-20" value="" style="endArrow=none;html=1;rounded=0;" edge="1" parent="bnYyNJB6cAQLW_tnR6n0-19">
          <mxGeometry width="50" height="50" relative="1" as="geometry">
            <mxPoint y="20" as="sourcePoint" />
            <mxPoint x="20" as="targetPoint" />
          </mxGeometry>
        </mxCell>
        <mxCell id="bnYyNJB6cAQLW_tnR6n0-21" value="" style="endArrow=none;html=1;rounded=0;" edge="1" parent="bnYyNJB6cAQLW_tnR6n0-19">
          <mxGeometry width="50" height="50" relative="1" as="geometry">
            <mxPoint as="sourcePoint" />
            <mxPoint x="20" y="20" as="targetPoint" />
          </mxGeometry>
        </mxCell>
        <mxCell id="bnYyNJB6cAQLW_tnR6n0-22" value="" style="rounded=0;whiteSpace=wrap;html=1;" vertex="1" parent="1">
          <mxGeometry x="129" y="95" width="100" height="30" as="geometry" />
        </mxCell>
        <mxCell id="bnYyNJB6cAQLW_tnR6n0-25" value="" style="rounded=0;whiteSpace=wrap;html=1;" vertex="1" parent="1">
          <mxGeometry x="129" y="265" width="100" height="30" as="geometry" />
        </mxCell>
        <mxCell id="bnYyNJB6cAQLW_tnR6n0-27" value="" style="rounded=0;whiteSpace=wrap;html=1;" vertex="1" parent="1">
          <mxGeometry x="289" y="95" width="100" height="60" as="geometry" />
        </mxCell>
        <mxCell id="bnYyNJB6cAQLW_tnR6n0-28" value="" style="rounded=0;whiteSpace=wrap;html=1;" vertex="1" parent="1">
          <mxGeometry x="289" y="235" width="100" height="60" as="geometry" />
        </mxCell>
        <mxCell id="bnYyNJB6cAQLW_tnR6n0-52" style="edgeStyle=orthogonalEdgeStyle;rounded=0;orthogonalLoop=1;jettySize=auto;html=1;exitX=1;exitY=0.5;exitDx=0;exitDy=0;entryX=0.5;entryY=0;entryDx=0;entryDy=0;" edge="1" parent="1" source="bnYyNJB6cAQLW_tnR6n0-29" target="bnYyNJB6cAQLW_tnR6n0-31">
          <mxGeometry relative="1" as="geometry" />
        </mxCell>
        <mxCell id="bnYyNJB6cAQLW_tnR6n0-29" value="" style="rounded=0;whiteSpace=wrap;html=1;" vertex="1" parent="1">
          <mxGeometry x="449" y="95" width="100" height="30" as="geometry" />
        </mxCell>
        <mxCell id="bnYyNJB6cAQLW_tnR6n0-51" style="edgeStyle=orthogonalEdgeStyle;rounded=0;orthogonalLoop=1;jettySize=auto;html=1;exitX=1;exitY=0.5;exitDx=0;exitDy=0;entryX=0.5;entryY=1;entryDx=0;entryDy=0;" edge="1" parent="1" source="bnYyNJB6cAQLW_tnR6n0-30" target="bnYyNJB6cAQLW_tnR6n0-31">
          <mxGeometry relative="1" as="geometry" />
        </mxCell>
        <mxCell id="bnYyNJB6cAQLW_tnR6n0-30" value="" style="rounded=0;whiteSpace=wrap;html=1;" vertex="1" parent="1">
          <mxGeometry x="449" y="265" width="100" height="30" as="geometry" />
        </mxCell>
        <mxCell id="bnYyNJB6cAQLW_tnR6n0-31" value="" style="rounded=0;whiteSpace=wrap;html=1;fillColor=none;dashed=1;" vertex="1" parent="1">
          <mxGeometry x="620" y="155" width="120" height="80" as="geometry" />
        </mxCell>
        <mxCell id="bnYyNJB6cAQLW_tnR6n0-32" value="" style="rounded=0;whiteSpace=wrap;html=1;" vertex="1" parent="1">
          <mxGeometry x="630" y="165" width="100" height="60" as="geometry" />
        </mxCell>
        <mxCell id="bnYyNJB6cAQLW_tnR6n0-33" value="Data" style="text;html=1;align=center;verticalAlign=middle;resizable=0;points=[];autosize=1;strokeColor=none;fillColor=none;" vertex="1" parent="1">
          <mxGeometry x="154" y="165" width="50" height="30" as="geometry" />
        </mxCell>
        <mxCell id="bnYyNJB6cAQLW_tnR6n0-34" value="Model" style="text;html=1;align=center;verticalAlign=middle;resizable=0;points=[];autosize=1;strokeColor=none;fillColor=none;" vertex="1" parent="1">
          <mxGeometry x="309" y="165" width="60" height="30" as="geometry" />
        </mxCell>
        <mxCell id="bnYyNJB6cAQLW_tnR6n0-35" value="Result" style="text;html=1;align=center;verticalAlign=middle;resizable=0;points=[];autosize=1;strokeColor=none;fillColor=none;" vertex="1" parent="1">
          <mxGeometry x="469" y="165" width="60" height="30" as="geometry" />
        </mxCell>
        <mxCell id="bnYyNJB6cAQLW_tnR6n0-36" value="Data" style="text;html=1;align=center;verticalAlign=middle;resizable=0;points=[];autosize=1;strokeColor=none;fillColor=none;" vertex="1" parent="1">
          <mxGeometry x="154" y="305" width="50" height="30" as="geometry" />
        </mxCell>
        <mxCell id="bnYyNJB6cAQLW_tnR6n0-37" value="Result" style="text;html=1;align=center;verticalAlign=middle;resizable=0;points=[];autosize=1;strokeColor=none;fillColor=none;" vertex="1" parent="1">
          <mxGeometry x="469" y="305" width="60" height="30" as="geometry" />
        </mxCell>
        <mxCell id="bnYyNJB6cAQLW_tnR6n0-38" value="Model" style="text;html=1;align=center;verticalAlign=middle;resizable=0;points=[];autosize=1;strokeColor=none;fillColor=none;" vertex="1" parent="1">
          <mxGeometry x="309" y="305" width="60" height="30" as="geometry" />
        </mxCell>
        <mxCell id="bnYyNJB6cAQLW_tnR6n0-42" value="cuda:0" style="text;html=1;align=center;verticalAlign=middle;resizable=0;points=[];autosize=1;strokeColor=none;fillColor=none;" vertex="1" parent="1">
          <mxGeometry x="59" y="110" width="60" height="30" as="geometry" />
        </mxCell>
        <mxCell id="bnYyNJB6cAQLW_tnR6n0-43" value="cuda:1" style="text;html=1;align=center;verticalAlign=middle;resizable=0;points=[];autosize=1;strokeColor=none;fillColor=none;" vertex="1" parent="1">
          <mxGeometry x="59" y="250" width="60" height="30" as="geometry" />
        </mxCell>
        <mxCell id="bnYyNJB6cAQLW_tnR6n0-53" value="" style="endArrow=none;dashed=1;html=1;dashPattern=1 3;strokeWidth=2;rounded=0;entryX=1;entryY=0.5;entryDx=0;entryDy=0;exitX=0;exitY=0.5;exitDx=0;exitDy=0;" edge="1" parent="1" source="bnYyNJB6cAQLW_tnR6n0-32" target="bnYyNJB6cAQLW_tnR6n0-32">
          <mxGeometry width="50" height="50" relative="1" as="geometry">
            <mxPoint x="580" y="175" as="sourcePoint" />
            <mxPoint x="630" y="125" as="targetPoint" />
          </mxGeometry>
        </mxCell>
        <mxCell id="bnYyNJB6cAQLW_tnR6n0-54" value="" style="rounded=1;whiteSpace=wrap;html=1;fillColor=none;dashed=1;strokeWidth=2;strokeColor=#909090;" vertex="1" parent="1">
          <mxGeometry x="59" y="530" width="510" height="130" as="geometry" />
        </mxCell>
        <mxCell id="bnYyNJB6cAQLW_tnR6n0-55" value="" style="rounded=1;whiteSpace=wrap;html=1;fillColor=none;dashed=1;strokeWidth=2;strokeColor=#909090;" vertex="1" parent="1">
          <mxGeometry x="59" y="390" width="510" height="130" as="geometry" />
        </mxCell>
        <mxCell id="bnYyNJB6cAQLW_tnR6n0-56" value="" style="rounded=0;whiteSpace=wrap;html=1;fillColor=none;dashed=1;" vertex="1" parent="1">
          <mxGeometry x="119" y="415" width="120" height="80" as="geometry" />
        </mxCell>
        <mxCell id="bnYyNJB6cAQLW_tnR6n0-57" value="" style="rounded=0;whiteSpace=wrap;html=1;fillColor=none;dashed=1;" vertex="1" parent="1">
          <mxGeometry x="279" y="415" width="120" height="80" as="geometry" />
        </mxCell>
        <mxCell id="bnYyNJB6cAQLW_tnR6n0-58" value="" style="rounded=0;whiteSpace=wrap;html=1;fillColor=none;dashed=1;" vertex="1" parent="1">
          <mxGeometry x="119" y="555" width="120" height="80" as="geometry" />
        </mxCell>
        <mxCell id="bnYyNJB6cAQLW_tnR6n0-59" value="" style="rounded=0;whiteSpace=wrap;html=1;fillColor=none;dashed=1;" vertex="1" parent="1">
          <mxGeometry x="279" y="555" width="120" height="80" as="geometry" />
        </mxCell>
        <mxCell id="bnYyNJB6cAQLW_tnR6n0-60" value="" style="rounded=0;whiteSpace=wrap;html=1;fillColor=none;dashed=1;" vertex="1" parent="1">
          <mxGeometry x="439" y="415" width="120" height="80" as="geometry" />
        </mxCell>
        <mxCell id="bnYyNJB6cAQLW_tnR6n0-61" value="" style="rounded=0;whiteSpace=wrap;html=1;fillColor=none;dashed=1;" vertex="1" parent="1">
          <mxGeometry x="439" y="555" width="120" height="80" as="geometry" />
        </mxCell>
        <mxCell id="bnYyNJB6cAQLW_tnR6n0-62" value="" style="group" vertex="1" connectable="0" parent="1">
          <mxGeometry x="249" y="445" width="20" height="20" as="geometry" />
        </mxCell>
        <mxCell id="bnYyNJB6cAQLW_tnR6n0-63" value="" style="endArrow=none;html=1;rounded=0;" edge="1" parent="bnYyNJB6cAQLW_tnR6n0-62">
          <mxGeometry width="50" height="50" relative="1" as="geometry">
            <mxPoint y="20" as="sourcePoint" />
            <mxPoint x="20" as="targetPoint" />
          </mxGeometry>
        </mxCell>
        <mxCell id="bnYyNJB6cAQLW_tnR6n0-64" value="" style="endArrow=none;html=1;rounded=0;" edge="1" parent="bnYyNJB6cAQLW_tnR6n0-62">
          <mxGeometry width="50" height="50" relative="1" as="geometry">
            <mxPoint as="sourcePoint" />
            <mxPoint x="20" y="20" as="targetPoint" />
          </mxGeometry>
        </mxCell>
        <mxCell id="bnYyNJB6cAQLW_tnR6n0-65" value="" style="group" vertex="1" connectable="0" parent="1">
          <mxGeometry x="409" y="450" width="20" height="10" as="geometry" />
        </mxCell>
        <mxCell id="bnYyNJB6cAQLW_tnR6n0-66" value="" style="endArrow=none;html=1;rounded=0;" edge="1" parent="bnYyNJB6cAQLW_tnR6n0-65">
          <mxGeometry width="50" height="50" relative="1" as="geometry">
            <mxPoint as="sourcePoint" />
            <mxPoint x="20" as="targetPoint" />
          </mxGeometry>
        </mxCell>
        <mxCell id="bnYyNJB6cAQLW_tnR6n0-67" value="" style="endArrow=none;html=1;rounded=0;" edge="1" parent="bnYyNJB6cAQLW_tnR6n0-65">
          <mxGeometry width="50" height="50" relative="1" as="geometry">
            <mxPoint y="10" as="sourcePoint" />
            <mxPoint x="20" y="10" as="targetPoint" />
          </mxGeometry>
        </mxCell>
        <mxCell id="bnYyNJB6cAQLW_tnR6n0-68" value="" style="group" vertex="1" connectable="0" parent="1">
          <mxGeometry x="409" y="590" width="20" height="10" as="geometry" />
        </mxCell>
        <mxCell id="bnYyNJB6cAQLW_tnR6n0-69" value="" style="endArrow=none;html=1;rounded=0;" edge="1" parent="bnYyNJB6cAQLW_tnR6n0-68">
          <mxGeometry width="50" height="50" relative="1" as="geometry">
            <mxPoint as="sourcePoint" />
            <mxPoint x="20" as="targetPoint" />
          </mxGeometry>
        </mxCell>
        <mxCell id="bnYyNJB6cAQLW_tnR6n0-70" value="" style="endArrow=none;html=1;rounded=0;" edge="1" parent="bnYyNJB6cAQLW_tnR6n0-68">
          <mxGeometry width="50" height="50" relative="1" as="geometry">
            <mxPoint y="10" as="sourcePoint" />
            <mxPoint x="20" y="10" as="targetPoint" />
          </mxGeometry>
        </mxCell>
        <mxCell id="bnYyNJB6cAQLW_tnR6n0-71" value="" style="group" vertex="1" connectable="0" parent="1">
          <mxGeometry x="249" y="585" width="20" height="20" as="geometry" />
        </mxCell>
        <mxCell id="bnYyNJB6cAQLW_tnR6n0-72" value="" style="endArrow=none;html=1;rounded=0;" edge="1" parent="bnYyNJB6cAQLW_tnR6n0-71">
          <mxGeometry width="50" height="50" relative="1" as="geometry">
            <mxPoint y="20" as="sourcePoint" />
            <mxPoint x="20" as="targetPoint" />
          </mxGeometry>
        </mxCell>
        <mxCell id="bnYyNJB6cAQLW_tnR6n0-73" value="" style="endArrow=none;html=1;rounded=0;" edge="1" parent="bnYyNJB6cAQLW_tnR6n0-71">
          <mxGeometry width="50" height="50" relative="1" as="geometry">
            <mxPoint as="sourcePoint" />
            <mxPoint x="20" y="20" as="targetPoint" />
          </mxGeometry>
        </mxCell>
        <mxCell id="bnYyNJB6cAQLW_tnR6n0-74" value="" style="rounded=0;whiteSpace=wrap;html=1;" vertex="1" parent="1">
          <mxGeometry x="289" y="425" width="100" height="30" as="geometry" />
        </mxCell>
        <mxCell id="bnYyNJB6cAQLW_tnR6n0-75" value="" style="rounded=0;whiteSpace=wrap;html=1;" vertex="1" parent="1">
          <mxGeometry x="289" y="595" width="100" height="30" as="geometry" />
        </mxCell>
        <mxCell id="bnYyNJB6cAQLW_tnR6n0-76" value="" style="rounded=0;whiteSpace=wrap;html=1;" vertex="1" parent="1">
          <mxGeometry x="129" y="565" width="100" height="60" as="geometry" />
        </mxCell>
        <mxCell id="bnYyNJB6cAQLW_tnR6n0-77" value="" style="rounded=0;whiteSpace=wrap;html=1;" vertex="1" parent="1">
          <mxGeometry x="129" y="425" width="100" height="60" as="geometry" />
        </mxCell>
        <mxCell id="bnYyNJB6cAQLW_tnR6n0-78" style="edgeStyle=orthogonalEdgeStyle;rounded=0;orthogonalLoop=1;jettySize=auto;html=1;exitX=1;exitY=0.5;exitDx=0;exitDy=0;entryX=0.5;entryY=0;entryDx=0;entryDy=0;" edge="1" source="bnYyNJB6cAQLW_tnR6n0-79" target="bnYyNJB6cAQLW_tnR6n0-82" parent="1">
          <mxGeometry relative="1" as="geometry" />
        </mxCell>
        <mxCell id="bnYyNJB6cAQLW_tnR6n0-79" value="" style="rounded=0;whiteSpace=wrap;html=1;" vertex="1" parent="1">
          <mxGeometry x="449" y="425" width="100" height="30" as="geometry" />
        </mxCell>
        <mxCell id="bnYyNJB6cAQLW_tnR6n0-80" style="edgeStyle=orthogonalEdgeStyle;rounded=0;orthogonalLoop=1;jettySize=auto;html=1;exitX=1;exitY=0.5;exitDx=0;exitDy=0;entryX=0.5;entryY=1;entryDx=0;entryDy=0;" edge="1" source="bnYyNJB6cAQLW_tnR6n0-81" target="bnYyNJB6cAQLW_tnR6n0-82" parent="1">
          <mxGeometry relative="1" as="geometry" />
        </mxCell>
        <mxCell id="bnYyNJB6cAQLW_tnR6n0-81" value="" style="rounded=0;whiteSpace=wrap;html=1;" vertex="1" parent="1">
          <mxGeometry x="449" y="595" width="100" height="30" as="geometry" />
        </mxCell>
        <mxCell id="bnYyNJB6cAQLW_tnR6n0-82" value="" style="rounded=0;whiteSpace=wrap;html=1;fillColor=none;dashed=1;" vertex="1" parent="1">
          <mxGeometry x="620" y="485" width="120" height="80" as="geometry" />
        </mxCell>
        <mxCell id="bnYyNJB6cAQLW_tnR6n0-83" value="" style="rounded=0;whiteSpace=wrap;html=1;" vertex="1" parent="1">
          <mxGeometry x="630" y="495" width="100" height="60" as="geometry" />
        </mxCell>
        <mxCell id="bnYyNJB6cAQLW_tnR6n0-84" value="Data" style="text;html=1;align=center;verticalAlign=middle;resizable=0;points=[];autosize=1;strokeColor=none;fillColor=none;" vertex="1" parent="1">
          <mxGeometry x="154" y="495" width="50" height="30" as="geometry" />
        </mxCell>
        <mxCell id="bnYyNJB6cAQLW_tnR6n0-85" value="Model" style="text;html=1;align=center;verticalAlign=middle;resizable=0;points=[];autosize=1;strokeColor=none;fillColor=none;" vertex="1" parent="1">
          <mxGeometry x="309" y="495" width="60" height="30" as="geometry" />
        </mxCell>
        <mxCell id="bnYyNJB6cAQLW_tnR6n0-86" value="Result" style="text;html=1;align=center;verticalAlign=middle;resizable=0;points=[];autosize=1;strokeColor=none;fillColor=none;" vertex="1" parent="1">
          <mxGeometry x="469" y="495" width="60" height="30" as="geometry" />
        </mxCell>
        <mxCell id="bnYyNJB6cAQLW_tnR6n0-87" value="Data" style="text;html=1;align=center;verticalAlign=middle;resizable=0;points=[];autosize=1;strokeColor=none;fillColor=none;" vertex="1" parent="1">
          <mxGeometry x="154" y="635" width="50" height="30" as="geometry" />
        </mxCell>
        <mxCell id="bnYyNJB6cAQLW_tnR6n0-88" value="Result" style="text;html=1;align=center;verticalAlign=middle;resizable=0;points=[];autosize=1;strokeColor=none;fillColor=none;" vertex="1" parent="1">
          <mxGeometry x="469" y="635" width="60" height="30" as="geometry" />
        </mxCell>
        <mxCell id="bnYyNJB6cAQLW_tnR6n0-89" value="Model" style="text;html=1;align=center;verticalAlign=middle;resizable=0;points=[];autosize=1;strokeColor=none;fillColor=none;" vertex="1" parent="1">
          <mxGeometry x="309" y="635" width="60" height="30" as="geometry" />
        </mxCell>
        <mxCell id="bnYyNJB6cAQLW_tnR6n0-90" value="cuda:0" style="text;html=1;align=center;verticalAlign=middle;resizable=0;points=[];autosize=1;strokeColor=none;fillColor=none;" vertex="1" parent="1">
          <mxGeometry x="59" y="440" width="60" height="30" as="geometry" />
        </mxCell>
        <mxCell id="bnYyNJB6cAQLW_tnR6n0-91" value="cuda:1" style="text;html=1;align=center;verticalAlign=middle;resizable=0;points=[];autosize=1;strokeColor=none;fillColor=none;" vertex="1" parent="1">
          <mxGeometry x="59" y="580" width="60" height="30" as="geometry" />
        </mxCell>
        <mxCell id="bnYyNJB6cAQLW_tnR6n0-92" value="" style="endArrow=none;dashed=1;html=1;dashPattern=1 3;strokeWidth=2;rounded=0;entryX=1;entryY=0.5;entryDx=0;entryDy=0;exitX=0;exitY=0.5;exitDx=0;exitDy=0;" edge="1" source="bnYyNJB6cAQLW_tnR6n0-83" target="bnYyNJB6cAQLW_tnR6n0-83" parent="1">
          <mxGeometry width="50" height="50" relative="1" as="geometry">
            <mxPoint x="580" y="505" as="sourcePoint" />
            <mxPoint x="630" y="455" as="targetPoint" />
          </mxGeometry>
        </mxCell>
        <mxCell id="bnYyNJB6cAQLW_tnR6n0-93" value="(Concat)" style="text;html=1;align=center;verticalAlign=middle;resizable=0;points=[];autosize=1;strokeColor=none;fillColor=none;" vertex="1" parent="1">
          <mxGeometry x="559" y="180" width="70" height="30" as="geometry" />
        </mxCell>
        <mxCell id="bnYyNJB6cAQLW_tnR6n0-95" value="(Concat)" style="text;html=1;align=center;verticalAlign=middle;resizable=0;points=[];autosize=1;strokeColor=none;fillColor=none;" vertex="1" parent="1">
          <mxGeometry x="560" y="510" width="70" height="30" as="geometry" />
        </mxCell>
      </root>
    </mxGraphModel>
  </diagram>
</mxfile>
